<svg viewBox="0 0 90 18" xmlns="http://www.w3.org/2000/svg">
  <path d="M0 17.925H13.303V14.625H5.35468V14.525C5.86324 14.0148 6.31609 13.4534 6.70578 12.85L13.299 2.70804V3.67495e-05H0.403706V3.29204H7.91689V3.39804C7.51519 3.79527 7.15435 4.23072 6.83967 4.69804L0 15.213V17.925ZM14.1378 17.925H18.0694L19.174 14.525H25.26L26.391 17.925H30.9423L24.8025 3.67495e-05H20.2512L14.1378 17.925ZM21.5161 7.43804C21.8266 6.44068 22.0519 5.41945 22.1896 4.38504H22.2941C22.3837 5.43125 22.5916 6.46432 22.9139 7.46504L24.1524 11.235H20.2472L21.5161 7.43804ZM32.6119 17.925H37.1095V11.235H43.0342V7.94304H37.1095V3.29704H44.3802V0.00503782H32.6139L32.6119 17.925ZM46.5367 17.925H51.0343V10.832H52.0578C52.2804 10.8501 52.4897 10.9438 52.6501 11.097C52.9238 11.3506 53.1473 11.6521 53.3094 11.986C53.5609 12.4602 53.7858 12.9476 53.983 13.446C54.2075 14.0034 54.3285 14.2997 54.3461 14.335C54.7573 15.4505 55.4466 16.4461 56.3504 17.23C57.1265 17.7635 58.0574 18.0338 59.0029 18C59.6119 17.991 60.2176 17.9108 60.8074 17.761L61.1574 14.602C60.9254 14.6904 60.6788 14.7355 60.4301 14.735C60.0933 14.7458 59.7609 14.6582 59.4746 14.483C59.2269 14.3263 59.0083 14.1287 58.8284 13.899C58.6659 13.6902 58.5217 13.468 58.3974 13.235C58.2804 13.0137 58.1279 12.704 57.9399 12.306C57.7519 11.908 57.6309 11.6557 57.5768 11.549C57.2748 10.9044 56.8442 10.3262 56.3109 9.84904C57.0446 9.6186 57.7196 9.23527 58.2898 8.72504C58.8687 8.24017 59.3171 7.62186 59.5953 6.92504C59.8396 6.30706 59.9675 5.65029 59.9726 4.98704C59.9852 4.25254 59.8382 3.52389 59.5415 2.85004C59.2669 2.23803 58.852 1.69718 58.3294 1.27004C57.7742 0.82747 57.1328 0.502076 56.4448 0.314038C55.6565 0.0945287 54.8405 -0.0128891 54.0215 -0.00496241H46.5367V17.925ZM53.1887 3.21704C53.5216 3.22106 53.8523 3.27018 54.1716 3.36304C54.5358 3.47034 54.8532 3.69455 55.0734 4.00004C55.3424 4.38518 55.475 4.84704 55.4507 5.31404C55.4734 5.78293 55.3464 6.24704 55.0876 6.64104C54.8421 6.97951 54.4999 7.23819 54.1047 7.38404C53.6392 7.55233 53.1458 7.63338 52.6501 7.62304H51.0323V3.21604L53.1887 3.21704ZM63.043 17.925H75.3499V14.625H67.5396V10.434H73.868V7.14204H67.5406V3.29204H75.0801V3.67495e-05H63.043V17.925ZM77.6931 17.925H90V14.625H82.1896V10.434H88.5181V7.14204H82.1896V3.29204H89.7302V3.67495e-05H77.6931V17.925Z" fill="black"/>
</svg>
